<?xml version="1.0" encoding="UTF-8" standalone="no"?>
<svg
   xmlns:dc="http://purl.org/dc/elements/1.1/"
   xmlns:cc="http://creativecommons.org/ns#"
   xmlns:rdf="http://www.w3.org/1999/02/22-rdf-syntax-ns#"
   xmlns:svg="http://www.w3.org/2000/svg"
   xmlns="http://www.w3.org/2000/svg"
   xmlns:sodipodi="http://sodipodi.sourceforge.net/DTD/sodipodi-0.dtd"
   xmlns:inkscape="http://www.inkscape.org/namespaces/inkscape"
   inkscape:version="1.0 (6e3e5246a0, 2020-05-07)"
   sodipodi:docname="noun_visual effect_1885325.svg"
   id="svg1502"
   version="1.1"
   height="100"
   width="100">
  <metadata
     id="metadata1508">
    <rdf:RDF>
      <cc:Work
         rdf:about="">
        <dc:format>image/svg+xml</dc:format>
        <dc:type
           rdf:resource="http://purl.org/dc/dcmitype/StillImage" />
      </cc:Work>
    </rdf:RDF>
  </metadata>
  <defs
     id="defs1506" />
  <sodipodi:namedview
     inkscape:current-layer="svg1502"
     inkscape:window-maximized="0"
     inkscape:window-y="27"
     inkscape:window-x="54"
     inkscape:cy="50"
     inkscape:cx="50"
     inkscape:zoom="6.51"
     showgrid="false"
     id="namedview1504"
     inkscape:window-height="881"
     inkscape:window-width="1472"
     inkscape:pageshadow="2"
     inkscape:pageopacity="0"
     guidetolerance="10"
     gridtolerance="10"
     objecttolerance="10"
     borderopacity="1"
     bordercolor="#666666"
     pagecolor="#ffffff" />
  <svg
     style="fill:#22840e;fill-opacity:0.78823531"
     height="100%"
     width="100%"
     id="svg1500"
     version="1.1"
     viewBox="0 0 164 164"
     fill="#1c3ed3">
    <path
       style="fill:#22840e;fill-opacity:0.78823531"
       id="path1494"
       d="m 131.5,26 c 0.3,-0.4 0.3,-1 -0.1,-1.3 -1,-0.9 -2.1,-1.7 -3.1,-2.5 -0.4,-0.3 -1,-0.2 -1.3,0.2 -0.3,0.4 -0.2,1 0.2,1.3 l 3,2.4 c 0.4,0.4 1,0.3 1.3,-0.1 z m -14.2,-8.5 c 0.5,0.2 1,0.1 1.3,-0.4 0.2,-0.5 0.1,-1 -0.4,-1.3 L 114.6,14 c -0.5,-0.2 -1,0 -1.3,0.5 -0.2,0.5 0,1 0.5,1.3 1.2,0.5 2.4,1 3.5,1.7 z m -14.4,-5.9 c 0.5,0.1 1,-0.1 1.2,-0.7 0.1,-0.5 -0.1,-1 -0.7,-1.2 -1.3,-0.4 -2.6,-0.7 -3.9,-1 -0.5,-0.1 -1,0.2 -1.1,0.7 -0.1,0.5 0.2,1 0.7,1.1 1.3,0.4 2.6,0.8 3.8,1.1 z m 7.4,2.6 c 0.5,0.2 1,0 1.2,-0.5 0.2,-0.5 0,-1 -0.5,-1.2 -1.2,-0.5 -2.5,-1 -3.7,-1.4 -0.5,-0.2 -1,0.1 -1.2,0.6 -0.2,0.5 0.1,1 0.6,1.2 1.2,0.3 2.4,0.8 3.6,1.3 z m 13.7,7.3 c 0.4,0.3 1,0.2 1.3,-0.3 0.3,-0.4 0.2,-1 -0.3,-1.3 -1.1,-0.7 -2.2,-1.5 -3.4,-2.1 -0.5,-0.3 -1,-0.1 -1.3,0.3 -0.3,0.5 -0.1,1 0.3,1.3 1.2,0.6 2.3,1.3 3.4,2.1 z m 27,32.3 1.5,3.6 c 0.2,0.5 0.7,0.7 1.2,0.6 0.5,-0.2 0.7,-0.7 0.6,-1.2 -0.5,-1.2 -1,-2.5 -1.5,-3.7 -0.2,-0.5 -0.8,-0.7 -1.3,-0.5 -0.5,0.2 -0.7,0.7 -0.5,1.2 z M 133.1,27.3 c -0.4,0.4 -0.3,1 0.1,1.3 0.9,0.9 1.9,1.8 2.8,2.7 0.4,0.4 1,0.4 1.3,0 0.4,-0.4 0.4,-1 0,-1.3 -0.9,-0.9 -1.9,-1.9 -2.9,-2.8 -0.4,-0.3 -1,-0.3 -1.3,0.1 z m 20.6,33.8 c 0.4,1.2 0.8,2.5 1.1,3.7 0.1,0.5 0.7,0.8 1.2,0.7 0.5,-0.1 0.8,-0.7 0.7,-1.2 -0.3,-1.3 -0.7,-2.6 -1.1,-3.8 -0.2,-0.5 -0.7,-0.8 -1.2,-0.6 -0.6,0.1 -0.8,0.7 -0.7,1.2 z m 2,7.5 c 0.3,1.3 0.5,2.5 0.7,3.8 0.1,0.5 0.6,0.9 1.1,0.8 0.5,-0.1 0.9,-0.6 0.8,-1.1 -0.2,-1.3 -0.4,-2.6 -0.7,-3.9 -0.1,-0.5 -0.6,-0.8 -1.1,-0.7 -0.6,0.1 -0.9,0.6 -0.8,1.1 z m -6.4,-18.3 c 0.2,0.5 0.8,0.7 1.3,0.4 0.5,-0.2 0.7,-0.8 0.4,-1.3 -0.6,-1.2 -1.2,-2.4 -1.9,-3.5 -0.3,-0.5 -0.8,-0.6 -1.3,-0.4 -0.5,0.3 -0.6,0.8 -0.4,1.3 0.8,1.2 1.4,2.4 1.9,3.5 z M 143.6,39 c -0.4,0.3 -0.5,0.9 -0.2,1.3 0.7,1 1.5,2.1 2.2,3.2 0.3,0.4 0.9,0.6 1.3,0.3 0.4,-0.3 0.6,-0.9 0.3,-1.3 -0.7,-1.1 -1.5,-2.2 -2.2,-3.3 -0.4,-0.4 -1,-0.5 -1.4,-0.2 z m -5,-6.1 c -0.4,0.3 -0.4,0.9 -0.1,1.3 0.9,1 1.7,2 2.5,3 0.3,0.4 0.9,0.5 1.3,0.2 0.4,-0.3 0.5,-0.9 0.2,-1.3 -0.8,-1 -1.7,-2.1 -2.6,-3.1 -0.3,-0.4 -0.9,-0.4 -1.3,-0.1 z m -104.8,-6.8 3,-2.4 c 0.4,-0.3 0.5,-0.9 0.2,-1.3 -0.3,-0.4 -0.9,-0.5 -1.3,-0.2 -1.1,0.8 -2.1,1.6 -3.1,2.5 -0.4,0.3 -0.5,0.9 -0.1,1.3 0.3,0.4 0.9,0.4 1.3,0.1 z m 6.2,-4.7 3.3,-2.1 c 0.5,-0.3 0.6,-0.9 0.3,-1.3 -0.3,-0.5 -0.9,-0.6 -1.3,-0.3 -1.1,0.7 -2.3,1.4 -3.4,2.1 -0.4,0.3 -0.6,0.9 -0.3,1.3 0.4,0.5 1,0.6 1.4,0.3 z m 21,-9.8 c 1.2,-0.4 2.5,-0.7 3.8,-1 C 65.3,10.5 65.6,10 65.5,9.5 65.4,9 64.9,8.7 64.4,8.8 63.1,9.1 61.8,9.4 60.5,9.8 60,9.9 59.7,10.5 59.8,11 60,11.5 60.5,11.8 61,11.6 Z M 13.4,50.7 c 0.5,0.2 1,0 1.3,-0.4 0.6,-1.1 1.2,-2.3 1.8,-3.4 0.3,-0.5 0.1,-1 -0.4,-1.3 -0.5,-0.3 -1,-0.1 -1.3,0.4 -0.7,1.2 -1.3,2.3 -1.9,3.5 -0.2,0.4 0,1 0.5,1.2 z M 10.3,58 c 0.5,0.2 1,-0.1 1.2,-0.6 L 13,53.8 c 0.2,-0.5 0,-1 -0.5,-1.3 -0.5,-0.2 -1,0 -1.3,0.5 -0.5,1.2 -1,2.4 -1.5,3.7 -0.1,0.5 0.1,1.1 0.6,1.3 z M 8,65.5 c 0.5,0.1 1,-0.2 1.2,-0.7 0.3,-1.2 0.7,-2.5 1.1,-3.7 0.2,-0.5 -0.1,-1 -0.6,-1.2 -0.5,-0.2 -1,0.1 -1.2,0.6 -0.4,1.3 -0.8,2.6 -1.1,3.8 -0.2,0.6 0.1,1.1 0.6,1.2 z m 9.2,-21.7 c 0.4,0.3 1,0.2 1.3,-0.3 0.7,-1.1 1.4,-2.2 2.2,-3.2 0.3,-0.4 0.2,-1 -0.2,-1.3 -0.4,-0.3 -1,-0.2 -1.3,0.2 -0.8,1.1 -1.5,2.2 -2.2,3.3 -0.4,0.5 -0.3,1 0.2,1.3 z M 46.7,17.5 C 47.8,16.9 49,16.3 50.2,15.8 50.7,15.6 50.9,15 50.7,14.5 50.5,14 49.9,13.8 49.4,14 l -3.6,1.8 c -0.5,0.2 -0.6,0.8 -0.4,1.3 0.2,0.4 0.8,0.6 1.3,0.4 z M 6.5,73.2 C 7,73.3 7.5,72.9 7.6,72.4 7.8,71.1 8,69.8 8.3,68.6 8.4,68.1 8.1,67.6 7.6,67.5 7.1,67.4 6.6,67.7 6.5,68.2 6.2,69.5 6,70.8 5.8,72.1 5.7,72.7 6,73.2 6.5,73.2 Z M 29.6,27.3 c -1,0.9 -1.9,1.8 -2.9,2.8 -0.4,0.4 -0.4,1 0,1.3 0.4,0.4 1,0.4 1.3,0 0.9,-0.9 1.8,-1.8 2.8,-2.7 0.4,-0.4 0.4,-1 0.1,-1.3 C 30.6,26.9 30,26.9 29.6,27.3 Z M 24.1,33 c -0.9,1 -1.7,2 -2.6,3.1 -0.3,0.4 -0.3,1 0.2,1.3 0.4,0.3 1,0.3 1.3,-0.2 0.8,-1 1.6,-2 2.5,-3 0.3,-0.4 0.3,-1 -0.1,-1.3 -0.4,-0.4 -1,-0.3 -1.3,0.1 z M 53.7,14.2 c 1.2,-0.5 2.4,-0.9 3.6,-1.4 0.5,-0.2 0.8,-0.7 0.6,-1.2 -0.2,-0.5 -0.7,-0.8 -1.2,-0.6 -1.2,0.4 -2.5,0.9 -3.7,1.4 -0.5,0.2 -0.7,0.8 -0.5,1.2 0.2,0.5 0.7,0.8 1.2,0.6 z M 162,77.1 h -3.2 c 0,-0.3 -0.1,-0.7 -0.1,-1 -0.1,-0.5 -0.5,-0.9 -1,-0.9 -0.5,0.1 -0.9,0.5 -0.9,1 0,0.3 0,0.6 0.1,0.8 h -2.6 c -0.5,0 -1,0.4 -1,1 v 7.7 c 0,0.5 0.4,1 1,1 h 2.8 c -0.7,19.8 -9.3,37.7 -22.6,50.7 H 29.4 C 16.1,124.3 7.6,106.4 6.8,86.7 h 2.8 c 0.5,0 1,-0.4 1,-1 V 78 c 0,-0.5 -0.4,-1 -1,-1 H 7.1 c 0,-0.3 0,-0.6 0.1,-0.8 0.1,-0.5 -0.3,-1 -0.9,-1 -0.5,0 -1,0.3 -1,0.9 0,0.3 -0.1,0.7 -0.1,1 H 2 c -0.5,0 -1,0.4 -1,1 v 7.7 c 0,0.5 0.4,1 1,1 h 3 c 1.5,41.5 35.5,74.4 77.1,74.4 41.6,0 75.6,-32.9 77.1,-74.4 h 3 c 0.5,0 1,-0.4 1,-1 v -7.7 c -0.2,-0.5 -0.6,-1 -1.2,-1 z M 2.9,79 h 5.8 v 5.8 H 2.9 Z m 28.5,60.4 h 101.2 c -13.4,12.3 -31.2,19.8 -50.6,19.8 -19.4,0 -37.2,-7.6 -50.6,-19.8 z M 161.1,84.8 h -5.8 V 79 h 5.8 z" />
    <path
       style="fill:#22840e;fill-opacity:0.78823531"
       id="path1496"
       d="m 22.7,12.2 c 2.1,0 3.9,-1.5 4.4,-3.5 h 40.4 c 0,0.1 -0.1,0.3 0,0.4 0.1,0.5 0.6,0.9 1.1,0.8 1.3,-0.2 2.6,-0.4 3.8,-0.6 0.4,0 0.6,-0.3 0.8,-0.6 h 2.5 c 0.2,0.1 0.4,0.2 0.6,0.2 h 0.1 c 0.3,0 0.6,0 0.9,-0.1 v 2.7 c 0,0.5 0.4,1 1,1 H 86 c 0.5,0 1,-0.4 1,-1 V 8.8 c 0.3,0 0.6,0 0.9,0.1 H 88 c 0.2,0 0.4,-0.1 0.6,-0.2 h 2.5 c 0.1,0.3 0.4,0.6 0.8,0.6 1.3,0.2 2.6,0.4 3.8,0.6 0.5,0.1 1,-0.2 1.1,-0.8 V 8.7 h 40.5 c 0.4,2 2.2,3.5 4.4,3.5 2.5,0 4.5,-2 4.5,-4.5 0,-2.5 -2,-4.5 -4.5,-4.5 -2.1,0 -3.9,1.5 -4.4,3.5 H 86.8 V 3.9 c 0,-0.5 -0.4,-1 -1,-1 h -7.7 c -0.5,0 -1,0.4 -1,1 v 2.9 h -50 c -0.4,-2 -2.2,-3.5 -4.4,-3.5 -2.5,0 -4.5,2 -4.5,4.5 0,2.4 2,4.4 4.5,4.4 z M 141.3,5.1 c 1.4,0 2.6,1.2 2.6,2.6 0,1.4 -1.2,2.6 -2.6,2.6 -1.4,0 -2.6,-1.2 -2.6,-2.6 0,-1.4 1.2,-2.6 2.6,-2.6 z M 79.1,4.8 h 5.8 v 5.8 H 79.1 Z M 22.7,5.1 c 1.4,0 2.6,1.2 2.6,2.6 0,1.4 -1.2,2.6 -2.6,2.6 -1.4,0 -2.6,-1.2 -2.6,-2.6 0,-1.4 1.2,-2.6 2.6,-2.6 z m 59.3,129 c 27.7,0 50.2,-22.5 50.2,-50.2 0,-27.7 -22.5,-50.2 -50.2,-50.2 -27.7,0 -50.2,22.5 -50.2,50.2 0,27.7 22.5,50.2 50.2,50.2 z m 0,-98.5 c 26.6,0 48.3,21.7 48.3,48.3 0,26.6 -21.7,48.3 -48.3,48.3 -26.6,0 -48.3,-21.7 -48.3,-48.3 0,-26.6 21.7,-48.3 48.3,-48.3 z" />
    <path
       style="fill:#22840e;fill-opacity:0.78823531"
       id="path1498"
       d="m 82,112.1 c 15.5,0 28.2,-12.6 28.2,-28.2 0,-15.3 -12.4,-27.9 -27.7,-28.2 -0.4,0 -0.7,0.2 -0.9,0.5 -0.2,0.3 -0.1,0.7 0.1,1 1.5,2.1 2.4,4.6 2.4,7.2 0,1.9 -0.4,3.7 -1.2,5.4 -0.1,0.3 -0.3,0.6 -0.4,0.8 -0.1,0.1 -0.1,0.2 -0.2,0.3 -0.1,0.2 -0.2,0.3 -0.3,0.4 -0.1,0.1 -0.2,0.3 -0.3,0.4 -0.1,0.1 -0.1,0.2 -0.2,0.3 -0.1,0.2 -0.3,0.3 -0.4,0.5 0,0.1 -0.1,0.1 -0.1,0.2 -0.2,0.2 -0.3,0.4 -0.5,0.5 -2.2,2.1 -5.2,3.4 -8.4,3.4 h -0.9 c -0.3,0 -0.6,-0.1 -1,-0.1 -4.5,-0.7 -8.2,-3.8 -9.6,-8.1 -0.1,-0.3 -0.4,-0.6 -0.8,-0.6 -0.4,0 -0.7,0.1 -0.9,0.4 C 55.7,72.9 54,78.3 54,84 53.8,99.5 66.5,112.1 82,112.1 Z M 69.1,85.2 c 0,2.3 -1.9,4.2 -4.2,4.2 -2.3,0 -4.2,-1.9 -4.2,-4.2 0,-2.3 1.9,-4.2 4.2,-4.2 2.4,0 4.2,1.9 4.2,4.2 z m 0.4,-4.1 c 0.2,-0.9 0.5,-1.8 0.9,-2.7 h 1.7 c 4.3,0 8.1,-2 10.7,-5.2 L 83,73 c 0.1,-0.2 0.2,-0.3 0.4,-0.5 0.1,-0.1 0.2,-0.2 0.2,-0.3 0.1,-0.1 0.2,-0.3 0.3,-0.5 0.1,-0.1 0.2,-0.3 0.3,-0.4 l 0.1,-0.1 c 6.1,1 10.6,6.4 10.6,12.6 0,7.1 -5.8,12.8 -12.8,12.8 -5.3,0 -10.1,-3.3 -12,-8.3 0.6,-1 1,-2.1 1,-3.3 C 71,83.6 70.4,82.2 69.5,81.1 Z M 59.3,70.7 c 1.8,3.7 5.2,6.4 9.2,7.4 -0.2,0.6 -0.5,1.2 -0.6,1.7 C 67,79.4 66,79.1 65,79.1 c -3.3,0 -6.1,2.7 -6.1,6.1 0,3.3 2.7,6.1 6.1,6.1 1.4,0 2.6,-0.5 3.6,-1.2 2.4,5.2 7.6,8.6 13.4,8.6 8.1,0 14.7,-6.6 14.7,-14.7 0,-7 -5,-13 -11.7,-14.4 0.6,-1.6 0.9,-3.3 0.9,-5 0,-2.4 -0.6,-4.7 -1.7,-6.7 13.4,1.1 24,12.5 24,26.2 0,14.5 -11.8,26.3 -26.3,26.3 -14.5,0 -26.2,-12 -26.2,-26.5 0,-4.7 1.3,-9.2 3.6,-13.2 z m 20.5,74.4 c 0,-0.5 -0.4,-1 -1,-1 h -23 c -0.5,0 -1,0.4 -1,1 0,0.5 0.4,1 1,1 h 23.1 c 0.5,0 0.9,-0.4 0.9,-1 z m 7.5,0 c 0,-0.5 -0.4,-1 -1,-1 h -3.8 c -0.5,0 -1,0.4 -1,1 0,0.5 0.4,1 1,1 h 3.8 c 0.6,0 1,-0.4 1,-1 z m 2.3,1 h 2.5 c 0.5,0 1,-0.4 1,-1 0,-0.5 -0.4,-1 -1,-1 h -2.5 c -0.5,0 -1,0.4 -1,1 0,0.6 0.5,1 1,1 z m 18.6,2.8 h -23 c -0.5,0 -1,0.4 -1,1 0,0.5 0.4,1 1,1 h 23.1 c 0.5,0 1,-0.4 1,-1 -0.1,-0.6 -0.5,-1 -1.1,-1 z m -26.7,0 h -3.8 c -0.5,0 -1,0.4 -1,1 0,0.5 0.4,1 1,1 h 3.8 c 0.5,0 1,-0.4 1,-1 -0.1,-0.6 -0.5,-1 -1,-1 z m -7.1,0 h -2.5 c -0.5,0 -1,0.4 -1,1 0,0.5 0.4,1 1,1 h 2.5 c 0.5,0 1,-0.4 1,-1 0,-0.6 -0.5,-1 -1,-1 z" />
  </svg>
</svg>
